<svg width="18" height="24" viewBox="0 0 18 24" fill="none" xmlns="http://www.w3.org/2000/svg">
<path d="M17.2962 0.311066C16.8926 0.00811276 16.3874 -0.0678783 15.8821 0.0584366C13.0026 0.916974 11.765 0.968308 9.89603 0.311066C9.41644 0.134423 8.86083 0.210409 8.45624 0.513367C8.02697 0.816321 7.77435 1.29594 7.77435 1.8012V15.1865C7.09245 14.9082 6.30988 14.7573 5.50166 14.7573C2.49663 14.7573 0.0721436 16.8286 0.0721436 19.3786C0.0721436 21.9286 2.52245 24 5.50267 24C8.5077 24 10.9322 21.9286 10.9322 19.3786V5.76617C12.599 6.0188 14.2656 5.76617 16.7909 5.00828C17.4472 4.80598 17.9278 4.20007 17.9278 3.49349V1.59877C17.9278 1.09351 17.6999 0.614045 17.2962 0.311066Z" fill="#3579DD"/>
</svg>
