<svg width="26" height="26" viewBox="0 0 26 26" fill="none" xmlns="http://www.w3.org/2000/svg">
<path d="M14.0076 6.51288C13.8252 6.55461 13.6666 6.57386 13.539 6.58152C13.5418 6.38465 13.5591 6.12291 13.6125 5.82478C13.7322 5.15751 14.0297 4.32556 14.7358 3.61943C15.4664 2.88884 16.2264 2.51704 16.7994 2.3274C16.9885 2.26481 17.1571 2.22213 17.2972 2.19306C17.2927 2.39911 17.2735 2.66346 17.221 2.96126C17.0948 3.67744 16.7796 4.56778 16.0299 5.31743C15.2592 6.08815 14.5284 6.39378 14.0076 6.51288Z" fill="white" stroke="white" stroke-width="0.874384"/>
<path d="M13.2981 8.34684C12.138 8.33891 11.4253 7.33718 9.44952 7.33718C7.6717 7.33718 5.88951 8.48421 5.13171 9.59408C4.37743 10.6988 3.72412 11.9104 3.72412 14.3692C3.72412 16.828 4.90802 21.0567 7.81923 23.9194C8.31779 24.4097 8.97775 24.7782 9.73066 24.801C11.0848 24.842 11.9163 23.8284 13.6268 23.8284C15.3373 23.8284 15.852 24.801 17.3962 24.801C18.0984 24.801 18.8992 24.4812 19.6768 23.6542C20.6746 22.5931 21.9128 20.5721 22.5435 18.6336C22.5435 18.6336 19.3852 17.4138 19.4234 13.898C19.4551 10.9839 21.9297 9.55051 21.9297 9.55051C21.9297 9.55051 20.4845 7.24609 17.412 7.24609C15.2898 7.26196 14.3394 8.35397 13.2981 8.34684Z" fill="white"/>
</svg>
