<svg width="20" height="20" viewBox="0 0 20 20" fill="none" xmlns="http://www.w3.org/2000/svg">
<circle cx="10" cy="10" r="10" fill="#0D1828"/>
<path d="M14.6806 7.09121C14.6094 7.14521 13.3516 7.83768 13.3516 9.37744C13.3516 11.1584 14.9521 11.7885 15 11.8041C14.9926 11.8425 14.7457 12.667 14.1561 13.5071C13.6304 14.2463 13.0813 14.9844 12.246 14.9844C11.4108 14.9844 11.1958 14.5104 10.2315 14.5104C9.29186 14.5104 8.95775 15 8.19371 15C7.42968 15 6.89657 14.3159 6.28363 13.4758C5.57364 12.4893 5 10.9568 5 9.50225C5 7.16922 6.55263 5.93189 8.0807 5.93189C8.89264 5.93189 9.56946 6.45275 10.0792 6.45275C10.5644 6.45275 11.3211 5.90069 12.2448 5.90069C12.5949 5.90069 13.8527 5.93189 14.6806 7.09121ZM11.8063 4.91299C12.1883 4.47015 12.4585 3.85569 12.4585 3.24122C12.4585 3.15602 12.4512 3.06961 12.4352 3C11.8137 3.0228 11.0742 3.40444 10.6283 3.90969C10.2782 4.29853 9.95148 4.91299 9.95148 5.53585C9.95148 5.62946 9.96745 5.72307 9.97482 5.75308C10.0141 5.76028 10.078 5.76868 10.1419 5.76868C10.6995 5.76868 11.4009 5.40384 11.8063 4.91299Z" fill="#3579DD"/>
</svg>
