<svg width="20" height="20" viewBox="0 0 20 20" fill="none" xmlns="http://www.w3.org/2000/svg">
<g filter="url(#filter0_d_799_13254)">
<path d="M13.75 1.25H6.25C5.75272 1.25 5.27581 1.44754 4.92417 1.79917C4.57254 2.15081 4.375 2.62772 4.375 3.125V16.875C4.375 17.3723 4.57254 17.8492 4.92417 18.2008C5.27581 18.5525 5.75272 18.75 6.25 18.75H13.75C14.2473 18.75 14.7242 18.5525 15.0758 18.2008C15.4275 17.8492 15.625 17.3723 15.625 16.875V3.125C15.625 2.62772 15.4275 2.15081 15.0758 1.79917C14.7242 1.44754 14.2473 1.25 13.75 1.25ZM6.25 2.5H13.75C13.9158 2.5 14.0747 2.56585 14.1919 2.68306C14.3092 2.80027 14.375 2.95924 14.375 3.125V3.75H5.625V3.125C5.625 2.95924 5.69085 2.80027 5.80806 2.68306C5.92527 2.56585 6.08424 2.5 6.25 2.5ZM13.75 17.5H6.25C6.08424 17.5 5.92527 17.4342 5.80806 17.3169C5.69085 17.1997 5.625 17.0408 5.625 16.875V16.25H14.375V16.875C14.375 17.0408 14.3092 17.1997 14.1919 17.3169C14.0747 17.4342 13.9158 17.5 13.75 17.5Z" fill="url(#paint0_linear_799_13254)"/>
</g>
<defs>
<filter id="filter0_d_799_13254" x="-7.625" y="-6.75" width="35.25" height="41.5" filterUnits="userSpaceOnUse" color-interpolation-filters="sRGB">
<feFlood flood-opacity="0" result="BackgroundImageFix"/>
<feColorMatrix in="SourceAlpha" type="matrix" values="0 0 0 0 0 0 0 0 0 0 0 0 0 0 0 0 0 0 127 0" result="hardAlpha"/>
<feOffset dy="4"/>
<feGaussianBlur stdDeviation="6"/>
<feComposite in2="hardAlpha" operator="out"/>
<feColorMatrix type="matrix" values="0 0 0 0 0 0 0 0 0 0 0 0 0 0 0 0 0 0 0.06 0"/>
<feBlend mode="normal" in2="BackgroundImageFix" result="effect1_dropShadow_799_13254"/>
<feBlend mode="normal" in="SourceGraphic" in2="effect1_dropShadow_799_13254" result="shape"/>
</filter>
<linearGradient id="paint0_linear_799_13254" x1="2.38462" y1="23.4167" x2="34.7831" y2="7.53475" gradientUnits="userSpaceOnUse">
<stop offset="0.184855" stop-color="#3579DD"/>
<stop offset="0.661555" stop-color="#91BCFE"/>
</linearGradient>
</defs>
</svg>
