<svg width="168" height="206" viewBox="0 0 168 206" fill="none" xmlns="http://www.w3.org/2000/svg">
<path d="M1.6204 102.443C1.61 104.143 1.63367 105.835 1.69062 107.515C1.86632 112.701 2.35882 117.785 3.14506 122.741C3.9042 127.526 4.93717 132.191 6.22324 136.709C7.66572 141.777 9.42658 146.661 11.4766 151.324C13.6416 156.249 16.129 160.928 18.9044 165.318C21.6409 169.647 24.6574 173.695 27.9207 177.42C31.9033 181.967 36.2536 186.034 40.9115 189.546C45.3251 192.874 50.0148 195.704 54.9295 197.973C55.7666 198.359 56.6102 198.729 57.4601 199.082C65.6113 202.472 74.3396 204.334 83.4221 204.389C128.943 204.668 166.122 159.476 166.465 103.451C166.807 47.4256 130.183 1.78249 84.6629 1.50409C77.5242 1.46043 70.5906 2.53505 63.9721 4.59436C61.0709 5.49705 58.2303 6.58893 55.4594 7.85877C51.258 9.78421 47.2171 12.1188 43.3689 14.8233C37.3257 19.0703 31.7577 24.2296 26.7901 30.1493C22.7441 34.9706 19.0963 40.2963 15.9142 46.0443C13.3629 50.6529 11.1109 55.533 9.19317 60.6423C7.36624 65.5095 5.84257 70.5848 4.65225 75.8314C3.53463 80.7577 2.71091 85.8352 2.20598 91.0334C1.8423 94.7776 1.644 98.5844 1.6204 102.443Z" fill="#FFF857"/>
<path d="M43.3689 14.8233L122.621 15.308M43.3689 14.8233C37.3257 19.0703 31.7577 24.2296 26.7901 30.1493M43.3689 14.8233C47.2171 12.1188 51.258 9.78421 55.4594 7.85877C58.2303 6.58893 61.0709 5.49705 63.9721 4.59436M26.7901 30.1493L132.671 30.7968M26.7901 30.1493C22.7441 34.9706 19.0963 40.2963 15.9142 46.0443M15.9142 46.0443L132.573 46.7578M15.9142 46.0443C13.3629 50.6529 11.1109 55.533 9.19318 60.6423M9.19318 60.6423L132.484 61.3963M9.19318 60.6423C7.36623 65.5095 5.84257 70.5848 4.65226 75.8314M4.65226 75.8314L132.391 76.6127M4.65226 75.8314C3.53463 80.7577 2.71091 85.8352 2.20598 91.0334M2.20598 91.0334C1.8423 94.7775 1.644 98.5844 1.62041 102.443C1.61 104.143 1.63367 105.835 1.69062 107.515M2.20598 91.0334L132.297 91.8291M1.69062 107.515L132.197 108.313M1.69062 107.515C1.86632 112.701 2.35882 117.785 3.14506 122.741M3.14506 122.741L128.934 123.51M3.14506 122.741C3.9042 127.526 4.93718 132.191 6.22323 136.709M6.22323 136.709L125.678 137.439M6.22323 136.709C7.66572 141.777 9.42658 146.661 11.4766 151.324M11.4766 151.324L109.105 151.921M11.4766 151.324C13.6416 156.249 16.129 160.928 18.9044 165.318M18.9044 165.318L87.4627 165.737M18.9044 165.318C21.6409 169.647 24.6574 173.695 27.9207 177.42M27.9207 177.42L87.389 177.784M27.9207 177.42C31.9033 181.967 36.2536 186.034 40.9115 189.546M40.9115 189.546L105.068 189.939M40.9115 189.546C45.3251 192.874 50.0148 195.704 54.9295 197.973C55.7666 198.359 56.6102 198.729 57.4601 199.082M57.4601 199.082C65.6113 202.472 74.3396 204.334 83.4221 204.389C128.943 204.668 166.122 159.476 166.465 103.451C166.807 47.4256 130.183 1.78249 84.6629 1.50409C77.5242 1.46043 70.5906 2.53505 63.9721 4.59436M57.4601 199.082L98.0371 199.331M70.6925 5.22289L63.9721 4.59436" stroke="black" stroke-width="1.75701"/>
<ellipse cx="76.0833" cy="101.444" rx="76.0833" ry="101.444" transform="matrix(-0.999981 -0.00611583 -0.00611583 0.999981 167.085 2.00818)" fill="#FFF857" stroke="black" stroke-width="1.75701"/>
<path d="M92.2712 1.55518L85.9663 204.409" stroke="black" stroke-width="1.75701"/>
<path d="M14.2679 107.597L166.455 105.992" stroke="black" stroke-width="1.75701"/>
<path d="M15.4469 122.818L165.935 87.5982" stroke="black" stroke-width="1.75701"/>
<path d="M30.4019 165.389L153.503 45.6753" stroke="black" stroke-width="1.75701"/>
<path d="M38.5714 177.489L142.828 29.127" stroke="black" stroke-width="1.75701"/>
<path d="M50.5457 188.972L130.226 15.7323" stroke="black" stroke-width="1.75701"/>
<path d="M65.7068 198.581L113.173 5.48865" stroke="black" stroke-width="1.75701"/>
<path d="M150.87 164.861L26.6923 46.1702" stroke="black" stroke-width="1.75701"/>
<path d="M128.854 137.459L20.9016 60.7139" stroke="black" stroke-width="1.75701"/>
<path d="M122.796 193.852L52.8758 15.259" stroke="black" stroke-width="1.75701"/>
<path d="M139.367 181.278L36.9418 30.3842" stroke="black" stroke-width="1.75701"/>
<path d="M106.266 201.36L70.0568 5.22052" stroke="black" stroke-width="1.75701"/>
<path d="M159.874 144.627L16.3705 75.2724" stroke="black" stroke-width="1.75701"/>
<path d="M165.077 123.098L15.0055 91.1119" stroke="black" stroke-width="1.75701"/>
<path d="M161.879 69.5776L18.8871 137.04" stroke="black" stroke-width="1.75701"/>
<ellipse cx="64.6708" cy="86.2278" rx="64.6708" ry="86.2278" transform="matrix(-0.999981 -0.00611583 -0.00611583 0.999981 155.579 17.1555)" fill="#FFF857" stroke="black" stroke-width="1.75701"/>
<ellipse cx="51.9903" cy="71.0111" rx="51.9903" ry="71.0111" transform="matrix(-0.999981 -0.00611583 -0.00611583 0.999981 144.083 32.3029)" fill="#FFF857" stroke="black" stroke-width="1.75701"/>
</svg>
