<svg width="14" height="14" viewBox="0 0 14 14" fill="none" xmlns="http://www.w3.org/2000/svg">
<g clip-path="url(#clip0_799_12231)">
<path d="M2.91046 10.9375C2.91046 10.9375 4.37499 10.0625 6.99999 10.0625C9.62499 10.0625 11.0895 10.9375 11.0895 10.9375L13.113 4.7365C13.1277 4.69437 13.1295 4.64879 13.1182 4.60563C13.1068 4.56246 13.0828 4.52368 13.0492 4.49427C13.0156 4.46486 12.974 4.44618 12.9297 4.44062C12.8854 4.43505 12.8405 4.44287 12.8007 4.46306L9.87874 5.91994C9.82815 5.94494 9.77002 5.95005 9.71584 5.93425C9.66166 5.91846 9.61539 5.8829 9.58616 5.83463L7.19249 1.85939C7.17247 1.82658 7.14435 1.79946 7.11083 1.78065C7.07732 1.76183 7.03952 1.75195 7.00109 1.75195C6.96265 1.75195 6.92485 1.76183 6.89134 1.78065C6.85782 1.79946 6.8297 1.82658 6.80968 1.85939L4.41382 5.83627C4.38467 5.88478 4.3383 5.92051 4.28396 5.93632C4.22963 5.95214 4.17132 5.94687 4.12069 5.92158L1.20312 4.4658C1.16328 4.44573 1.11836 4.438 1.0741 4.4436C1.02984 4.4492 0.988261 4.46787 0.954675 4.49723C0.921088 4.52659 0.897022 4.5653 0.885555 4.60841C0.874088 4.65152 0.875742 4.69707 0.890304 4.73924L2.91046 10.9375Z" stroke="white" stroke-width="1.2" stroke-linecap="round" stroke-linejoin="round"/>
<path d="M4.8125 8.49898C6.26023 8.25034 7.73977 8.25034 9.1875 8.49898" stroke="white" stroke-width="1.2" stroke-linecap="round" stroke-linejoin="round"/>
</g>
<defs>
<clipPath id="clip0_799_12231">
<rect width="14" height="14" fill="white"/>
</clipPath>
</defs>
</svg>
