<svg width="29" height="28" viewBox="0 0 29 28" fill="none" xmlns="http://www.w3.org/2000/svg">
<circle cx="14.4539" cy="13.9056" r="13.6189" fill="#EE8924"/>
<path d="M16.2596 8.99736C16.7506 8.46532 16.9962 8.1993 17.2571 8.04413C17.8866 7.66972 18.6618 7.65807 19.3019 8.01341C19.5671 8.16068 19.8202 8.41921 20.3263 8.93628C20.8325 9.45334 21.0856 9.71187 21.2297 9.98285C21.5776 10.6367 21.5662 11.4286 21.1997 12.0717C21.0478 12.3382 20.7873 12.589 20.2666 13.0906L14.0697 19.0592C13.0827 20.0099 12.5892 20.4852 11.9725 20.7261C11.3557 20.967 10.6777 20.9493 9.32159 20.9138L9.13708 20.909C8.72425 20.8982 8.51783 20.8928 8.39785 20.7566C8.27785 20.6204 8.29423 20.4101 8.327 19.9896L8.34479 19.7613C8.437 18.5777 8.48311 17.9859 8.71424 17.4539C8.94536 16.9219 9.34404 16.49 10.1414 15.6261L16.2596 8.99736Z" stroke="white" stroke-width="1.31796" stroke-linejoin="round"/>
<path d="M15.552 9.07275L20.1649 13.6856" stroke="white" stroke-width="1.31796" stroke-linejoin="round"/>
<path d="M16.2109 20.9346H21.4828" stroke="white" stroke-width="1.31796" stroke-linecap="round" stroke-linejoin="round"/>
</svg>
