<svg width="252" height="251" viewBox="0 0 252 251" fill="none" xmlns="http://www.w3.org/2000/svg">
<circle cx="126.224" cy="117.181" r="78.5362" fill="#F1F3FF"/>
<circle cx="52.61" cy="64.1525" r="4.9225" fill="#F1F3FF"/>
<circle cx="153.521" cy="29.4711" r="9.17375" fill="#F1F3FF"/>
<circle cx="59.9938" cy="179.831" r="8.72625" fill="#F1F3FF"/>
<circle cx="210.354" cy="159.246" r="8.72625" fill="#F1F3FF"/>
<circle cx="193.349" cy="169.091" r="4.25125" fill="#F1F3FF"/>
<path d="M130.71 42.4655C130.451 42.4104 130.451 42.0401 130.71 41.9849L134.633 41.1508C134.727 41.1307 134.801 41.057 134.822 40.9625L135.666 37.0675C135.722 36.8094 136.091 36.8094 136.147 37.0675L136.991 40.9625C137.012 41.057 137.086 41.1307 137.18 41.1508L141.103 41.9849C141.362 42.0401 141.362 42.4104 141.103 42.4655L137.18 43.2997C137.086 43.3198 137.012 43.3935 136.991 43.488L136.147 47.383C136.091 47.6411 135.722 47.6411 135.666 47.383L134.822 43.488C134.801 43.3935 134.727 43.3198 134.633 43.2997L130.71 42.4655Z" fill="#C4CBF5"/>
<path d="M41.0749 122.606C41.175 122.133 41.8503 122.133 41.9505 122.606L43.4464 129.673C43.4828 129.845 43.6169 129.98 43.7889 130.018L50.7831 131.541C51.2528 131.644 51.2528 132.314 50.7831 132.416L43.7889 133.94C43.6169 133.977 43.4828 134.112 43.4464 134.284L41.9505 141.351C41.8503 141.824 41.175 141.824 41.0749 141.351L39.579 134.284C39.5425 134.112 39.4084 133.977 39.2364 133.94L32.2422 132.416C31.7725 132.314 31.7725 131.644 32.2422 131.541L39.2364 130.018C39.4084 129.98 39.5425 129.845 39.579 129.673L41.0749 122.606Z" fill="#C4CBF5"/>
<path d="M196.412 66.2207C196.512 65.7476 197.187 65.7476 197.287 66.2207L198.16 70.3435C198.196 70.5157 198.33 70.6506 198.502 70.6881L202.594 71.5795C203.064 71.6818 203.064 72.3517 202.594 72.454L198.502 73.3454C198.33 73.3829 198.196 73.5177 198.16 73.69L197.287 77.8128C197.187 78.2859 196.512 78.2859 196.412 77.8128L195.539 73.69C195.503 73.5177 195.368 73.3829 195.196 73.3454L191.105 72.454C190.635 72.3517 190.635 71.6818 191.105 71.5795L195.196 70.6881C195.368 70.6506 195.503 70.5157 195.539 70.3435L196.412 66.2207Z" fill="#C4CBF5"/>
<path d="M214.452 132.32L215.823 138.794L222.204 140.185L215.823 141.575L214.452 148.049L213.082 141.575L206.7 140.185L213.082 138.794L214.452 132.32Z" fill="white"/>
<path d="M170.75 81.605L64.9163 122.104L87.515 184.977L101.164 191.019L118.169 194.599L135.398 193.927L145.466 192.137L154.416 189.452L169.184 181.845L181.714 172L182.681 170.749C188.142 163.69 192.984 156.174 197.153 148.282L170.75 81.605Z" fill="url(#paint0_linear_967_2444)"/>
<path d="M72.9714 104.204L61.7839 97.9391L158.891 61.2441L153.745 73.9979L157.549 85.8566L77.2227 116.51L72.9714 104.204Z" fill="#DDE2FF"/>
<path d="M87.0676 184.754V184.754C96.8597 189.761 107.461 192.994 118.38 194.304L118.653 194.337L126.438 194.337C132.27 194.337 138.085 193.716 143.785 192.486L145.715 192.069C151.81 190.753 157.694 188.604 163.202 185.683V185.683C167.5 183.404 171.541 180.67 175.255 177.527L176.46 176.507C179.683 173.78 182.674 170.79 185.401 167.567V167.567C189.219 163.054 192.499 158.112 195.174 152.84L197.6 148.059" stroke="#C4CBF5" stroke-width="1.79"/>
<path d="M64.0579 121.171L87.5152 185.187" stroke="#C4CBF5" stroke-width="1.79"/>
<path d="M171.682 81.5669L197.416 148.807" stroke="#C4CBF5" stroke-width="1.79"/>
<path d="M60.0305 98.1245L160.268 60.4592" stroke="#C4CBF5" stroke-width="1.79"/>
<path d="M63.5395 122.324L170.272 81.1629L154.537 73.8556C154.086 73.6458 153.892 73.1074 154.107 72.6579L159.586 61.1922" stroke="#C4CBF5" stroke-width="1.79"/>
<path d="M60.9298 97.8158L72.2123 103.865C72.6412 104.095 72.8078 104.625 72.5873 105.059L64.058 121.842" stroke="#C4CBF5" stroke-width="1.79"/>
<path d="M60.478 97.0059L67.7479 115.178" stroke="#C4CBF5" stroke-width="1.79"/>
<path d="M72.7476 104.875L77.2226 117.405" stroke="#C4CBF5" stroke-width="1.79"/>
<path d="M154.193 73.5503L158.668 86.5278" stroke="#C4CBF5" stroke-width="1.79"/>
<path d="M159.665 61.4019L166.088 79.1059" stroke="#C4CBF5" stroke-width="1.79"/>
<circle cx="106.086" cy="116.287" r="4.69875" fill="#DDE2FF"/>
<circle cx="99.3738" cy="92.1219" r="3.35625" fill="#F1F3FF"/>
<circle cx="135.621" cy="105.099" r="4.69875" fill="#DDE2FF"/>
<circle cx="119.959" cy="84.5145" r="3.35625" fill="#F1F3FF"/>
<defs>
<linearGradient id="paint0_linear_967_2444" x1="112.128" y1="81.605" x2="148.823" y2="191.914" gradientUnits="userSpaceOnUse">
<stop stop-color="#F1F3FF"/>
<stop offset="1" stop-color="#DDE2FF"/>
</linearGradient>
</defs>
</svg>
