<svg width="26" height="26" viewBox="0 0 26 26" fill="none" xmlns="http://www.w3.org/2000/svg">
<g clip-path="url(#clip0_817_1959)">
<path d="M25.458 13.5804C25.458 12.7245 25.3886 11.864 25.2406 11.022H13.3643V15.8706H20.1653C19.8831 17.4344 18.9763 18.8177 17.6484 19.6967V22.8428H21.7059C24.0886 20.6498 25.458 17.4112 25.458 13.5804Z" fill="#4285F4"/>
<path d="M13.3641 25.883C16.7599 25.883 19.6238 24.768 21.7103 22.8433L17.6529 19.6973C16.524 20.4653 15.0666 20.9002 13.3687 20.9002C10.0838 20.9002 7.29866 18.6841 6.29932 15.7046H2.1123V18.9478C4.24977 23.1996 8.60334 25.883 13.3641 25.883Z" fill="#34A853"/>
<path d="M6.29497 15.7042C5.76754 14.1404 5.76754 12.4471 6.29497 10.8833V7.64014H2.11258C0.326732 11.1979 0.326732 15.3896 2.11258 18.9474L6.29497 15.7042Z" fill="#FBBC04"/>
<path d="M13.3641 5.68334C15.1592 5.65558 16.8941 6.33106 18.1942 7.57097L21.789 3.97615C19.5127 1.83868 16.4916 0.663543 13.3641 0.700556C8.60334 0.700556 4.24977 3.38395 2.1123 7.64037L6.2947 10.8836C7.2894 7.89945 10.0792 5.68334 13.3641 5.68334Z" fill="#EA4335"/>
</g>
<defs>
<clipPath id="clip0_817_1959">
<rect width="25.1823" height="25.1823" fill="white" transform="translate(0.576416 0.699707)"/>
</clipPath>
</defs>
</svg>
