<svg width="19" height="19" viewBox="0 0 19 19" fill="none" xmlns="http://www.w3.org/2000/svg">
<path d="M18.5 8.83268V17.4999C18.5 17.8977 18.342 18.2792 18.0607 18.5605C17.7794 18.8418 17.3978 18.9999 17 18.9999H13.25C12.8522 18.9999 12.4706 18.8418 12.1893 18.5605C11.908 18.2792 11.75 17.8977 11.75 17.4999V13.7499C11.75 13.551 11.671 13.3602 11.5303 13.2195C11.3897 13.0789 11.1989 12.9999 11 12.9999H8C7.80109 12.9999 7.61032 13.0789 7.46967 13.2195C7.32902 13.3602 7.25 13.551 7.25 13.7499V17.4999C7.25 17.8977 7.09196 18.2792 6.81066 18.5605C6.52936 18.8418 6.14782 18.9999 5.75 18.9999H2C1.60218 18.9999 1.22064 18.8418 0.93934 18.5605C0.658035 18.2792 0.5 17.8977 0.5 17.4999V8.83268C0.499968 8.62508 0.543031 8.41973 0.626461 8.22964C0.709891 8.03954 0.831873 7.86883 0.984687 7.72831L8.48469 0.652058L8.495 0.641745C8.77113 0.39062 9.13097 0.251465 9.50422 0.251465C9.87747 0.251465 10.2373 0.39062 10.5134 0.641745C10.5166 0.645414 10.5201 0.648859 10.5238 0.652058L18.0238 7.72831C18.175 7.86957 18.2954 8.04061 18.3774 8.23067C18.4594 8.42074 18.5011 8.6257 18.5 8.83268Z" fill="#3579DD"/>
</svg>
