<svg width="18" height="24" viewBox="0 0 18 24" fill="none" xmlns="http://www.w3.org/2000/svg">
<path d="M17.2963 0.311051C16.8927 0.00809751 16.3874 -0.0678935 15.8822 0.0584214C13.0027 0.916958 11.765 0.968293 9.89609 0.311051C9.4165 0.134407 8.86089 0.210393 8.4563 0.513352C8.02704 0.816306 7.77441 1.29592 7.77441 1.80118V15.1865C7.09251 14.9082 6.30994 14.7573 5.50172 14.7573C2.49669 14.7573 0.0722046 16.8286 0.0722046 19.3786C0.0722046 21.9286 2.52251 24 5.50273 24C8.50777 24 10.9323 21.9286 10.9323 19.3786V5.76616C12.599 6.01879 14.2657 5.76616 16.791 5.00827C17.4472 4.80597 17.9278 4.20005 17.9278 3.49347V1.59875C17.9278 1.09349 17.6999 0.61403 17.2963 0.311051Z" fill="#83858A"/>
</svg>
