<svg width="19" height="19" viewBox="0 0 19 19" fill="none" xmlns="http://www.w3.org/2000/svg">
<path d="M18.5 8.83281V17.5C18.5 17.8978 18.342 18.2793 18.0607 18.5607C17.7794 18.842 17.3978 19 17 19H13.25C12.8522 19 12.4706 18.842 12.1893 18.5607C11.908 18.2793 11.75 17.8978 11.75 17.5V13.75C11.75 13.5511 11.671 13.3603 11.5303 13.2197C11.3897 13.079 11.1989 13 11 13H8C7.80109 13 7.61032 13.079 7.46967 13.2197C7.32902 13.3603 7.25 13.5511 7.25 13.75V17.5C7.25 17.8978 7.09196 18.2793 6.81066 18.5607C6.52936 18.842 6.14782 19 5.75 19H2C1.60218 19 1.22064 18.842 0.93934 18.5607C0.658035 18.2793 0.5 17.8978 0.5 17.5V8.83281C0.499968 8.6252 0.543031 8.41986 0.626461 8.22976C0.709891 8.03966 0.831873 7.86895 0.984687 7.72843L8.48469 0.65218L8.495 0.641867C8.77113 0.390742 9.13097 0.251587 9.50422 0.251587C9.87747 0.251587 10.2373 0.390742 10.5134 0.641867C10.5166 0.645536 10.5201 0.648981 10.5237 0.65218L18.0237 7.72843C18.175 7.86969 18.2954 8.04073 18.3774 8.2308C18.4594 8.42086 18.5011 8.62583 18.5 8.83281Z" fill="#83858A"/>
</svg>
