<svg width="14" height="17" viewBox="0 0 14 17" fill="none" xmlns="http://www.w3.org/2000/svg">
<path opacity="0.3" d="M6.9041 8.86676C7.36473 8.86676 7.75919 8.70521 8.08749 8.38211C8.41523 8.05957 8.5791 7.67163 8.5791 7.21831C8.5791 6.76498 8.41523 6.37677 8.08749 6.05368C7.75919 5.73113 7.36473 5.56986 6.9041 5.56986C6.44348 5.56986 6.04929 5.73113 5.72155 6.05368C5.39325 6.37677 5.2291 6.76498 5.2291 7.21831C5.2291 7.67163 5.39325 8.05957 5.72155 8.38211C6.04929 8.70521 6.44348 8.86676 6.9041 8.86676ZM6.9041 16.7999C6.79243 16.7999 6.68077 16.7793 6.5691 16.7381C6.45744 16.6969 6.35973 16.6419 6.27598 16.5733C4.23806 14.8012 2.7166 13.1563 1.7116 11.6386C0.706602 10.1204 0.204102 8.70191 0.204102 7.38315C0.204102 5.32259 0.877731 3.68101 2.22499 2.45841C3.57169 1.23581 5.13139 0.624512 6.9041 0.624512C8.67681 0.624512 10.2365 1.23581 11.5832 2.45841C12.9305 3.68101 13.6041 5.32259 13.6041 7.38315C13.6041 8.70191 13.1016 10.1204 12.0966 11.6386C11.0916 13.1563 9.57014 14.8012 7.53223 16.5733C7.44848 16.6419 7.35077 16.6969 7.2391 16.7381C7.12743 16.7793 7.01577 16.7999 6.9041 16.7999Z" fill="white"/>
</svg>
