<svg width="82" height="82" viewBox="0 0 82 82" fill="none" xmlns="http://www.w3.org/2000/svg">
<g filter="url(#filter0_d_1_2650)">
<circle cx="41" cy="33" r="21" fill="#202938"/>
<circle cx="41" cy="33" r="20.5" stroke="#2D3748"/>
</g>
<g clip-path="url(#clip0_1_2650)">
<path d="M41 24.25C39.1773 24.2521 37.4298 24.9771 36.1409 26.2659C34.8521 27.5548 34.1271 29.3023 34.125 31.125C34.125 37.0078 40.375 41.4508 40.6414 41.6367C40.7465 41.7103 40.8717 41.7498 41 41.7498C41.1283 41.7498 41.2535 41.7103 41.3586 41.6367C41.625 41.4508 47.875 37.0078 47.875 31.125C47.8729 29.3023 47.1479 27.5548 45.8591 26.2659C44.5702 24.9771 42.8227 24.2521 41 24.25ZM41 28.625C41.4945 28.625 41.9778 28.7716 42.3889 29.0463C42.8 29.321 43.1205 29.7115 43.3097 30.1683C43.4989 30.6251 43.5484 31.1278 43.452 31.6127C43.3555 32.0977 43.1174 32.5431 42.7678 32.8928C42.4181 33.2424 41.9727 33.4805 41.4877 33.577C41.0028 33.6734 40.5001 33.6239 40.0433 33.4347C39.5865 33.2455 39.196 32.925 38.9213 32.5139C38.6466 32.1028 38.5 31.6195 38.5 31.125C38.5 30.462 38.7634 29.8261 39.2322 29.3572C39.7011 28.8884 40.337 28.625 41 28.625Z" fill="#3579DD"/>
</g>
<defs>
<filter id="filter0_d_1_2650" x="0" y="0" width="82" height="82" filterUnits="userSpaceOnUse" color-interpolation-filters="sRGB">
<feFlood flood-opacity="0" result="BackgroundImageFix"/>
<feColorMatrix in="SourceAlpha" type="matrix" values="0 0 0 0 0 0 0 0 0 0 0 0 0 0 0 0 0 0 127 0" result="hardAlpha"/>
<feOffset dy="8"/>
<feGaussianBlur stdDeviation="10"/>
<feComposite in2="hardAlpha" operator="out"/>
<feColorMatrix type="matrix" values="0 0 0 0 0.337255 0 0 0 0 0.345098 0 0 0 0 0.360784 0 0 0 0.12 0"/>
<feBlend mode="normal" in2="BackgroundImageFix" result="effect1_dropShadow_1_2650"/>
<feBlend mode="normal" in="SourceGraphic" in2="effect1_dropShadow_1_2650" result="shape"/>
</filter>
<clipPath id="clip0_1_2650">
<rect width="20" height="20" fill="white" transform="translate(31 23)"/>
</clipPath>
</defs>
</svg>
