<svg width="22" height="21" viewBox="0 0 22 21" fill="none" xmlns="http://www.w3.org/2000/svg">
<path fill-rule="evenodd" clip-rule="evenodd" d="M3.21057 1.21325C4.52935 -0.0980349 6.70075 0.135374 7.80501 1.61042L9.17108 3.43519C10.0696 4.6354 9.9903 6.31284 8.92375 7.37334L8.66508 7.63054C8.65379 7.66335 8.62639 7.7665 8.6568 7.96253C8.72528 8.40398 9.09392 9.34042 10.6415 10.8792C12.1885 12.4174 13.1316 12.7857 13.5793 12.8544C13.7822 12.8855 13.8883 12.8565 13.9212 12.845L14.3632 12.4055C15.3113 11.4628 16.7683 11.2865 17.9422 11.9247L20.0119 13.0498C21.7842 14.0133 22.2319 16.4223 20.7799 17.866L19.241 19.3962C18.7561 19.8784 18.104 20.2804 17.3083 20.3546C15.3485 20.5373 10.7788 20.3041 5.97731 15.5299C1.49456 11.0727 0.634331 7.18567 0.525489 5.27052L1.33668 5.22442L0.525489 5.27052C0.470454 4.30212 0.928073 3.48279 1.51017 2.904L3.21057 1.21325ZM6.50415 2.58428C5.9553 1.85114 4.93233 1.79285 4.35634 2.36557L2.65594 4.05632C2.29853 4.4117 2.12656 4.80336 2.14787 5.17832C2.23435 6.69997 2.92909 10.2075 7.12308 14.3776C11.523 18.7526 15.5868 18.883 17.1574 18.7366C17.4784 18.7067 17.7975 18.54 18.0952 18.2439L19.6341 16.7137C20.2597 16.0917 20.1217 14.9591 19.2358 14.4775L17.1661 13.3524C16.5945 13.0417 15.925 13.1442 15.5089 13.5578L15.0155 14.0484L14.4427 13.4723C15.0155 14.0484 15.0148 14.0492 15.014 14.05L15.0124 14.0516L15.0091 14.0548L15.0021 14.0616L14.9862 14.0763C14.9748 14.0867 14.9618 14.0981 14.9471 14.1103C14.9176 14.1347 14.8815 14.1622 14.8382 14.1912C14.7515 14.2493 14.6369 14.3125 14.493 14.3662C14.1996 14.4755 13.8126 14.5342 13.3329 14.4606C12.3939 14.3166 11.15 13.6764 9.49571 12.0315C7.84202 10.3872 7.19643 9.14904 7.05101 8.21165C6.97664 7.73232 7.03596 7.34525 7.14659 7.05161C7.20082 6.90769 7.26472 6.79327 7.32336 6.70672C7.3526 6.66355 7.38044 6.62747 7.405 6.59816C7.41728 6.5835 7.42876 6.57052 7.4392 6.55918L7.45408 6.54338L7.46089 6.53638L7.46413 6.5331L7.46571 6.53152C7.46649 6.53074 7.46726 6.52997 8.04015 7.10613L7.46726 6.52997L7.77798 6.22102C8.2423 5.75934 8.30733 4.99294 7.87022 4.40905L6.50415 2.58428Z" fill="#F0F0F3"/>
</svg>
