<svg width="23" height="23" viewBox="0 0 23 23" fill="none" xmlns="http://www.w3.org/2000/svg">
<path d="M13.3878 19.0294V21.2889C17.399 20.5308 20.527 17.4065 21.2888 13.3916H19.0256C18.3374 16.1516 16.1478 18.3412 13.3878 19.0294Z" fill="#B3B3B3"/>
<path d="M9.61214 3.97414V1.71094C5.59726 2.46902 2.46926 5.59702 1.71118 9.6119H3.97438C4.66254 6.84822 6.84846 4.6623 9.61214 3.97414Z" fill="#B3B3B3"/>
<path d="M3.97438 13.3916H1.71118C2.47294 17.4065 5.60094 20.5308 9.61214 21.2889V19.0257C6.85214 18.3375 4.66254 16.1516 3.97438 13.3916Z" fill="#B3B3B3"/>
<path d="M19.0256 9.6119H21.2888C20.5307 5.59702 17.4027 2.46902 13.3878 1.71094V3.97046C16.1515 4.65862 18.3374 6.84822 19.0256 9.6119Z" fill="#B3B3B3"/>
<path d="M5.2624 11.5C5.2624 10.8633 4.7472 10.3481 4.11056 10.3481H1.15184C0.5152 10.3481 0 10.8633 0 11.5C0 12.1366 0.5152 12.6555 1.15184 12.6555H4.11056C4.7472 12.6555 5.2624 12.1366 5.2624 11.5Z" fill="#B3B3B3"/>
<path d="M21.8482 10.3481H18.8895C18.2528 10.3481 17.7376 10.8633 17.7376 11.5C17.7376 12.1366 18.2528 12.6555 18.8895 12.6555H21.8482C22.4848 12.6555 23 12.1366 23 11.5C23 10.8633 22.4848 10.3481 21.8482 10.3481Z" fill="#B3B3B3"/>
<path d="M11.5 5.26608C12.1366 5.26608 12.6518 4.7472 12.6518 4.11056V1.15552C12.6518 0.5152 12.1366 0 11.5 0C10.8633 0 10.3481 0.5152 10.3481 1.15552V4.11056C10.3481 4.7472 10.8633 5.26608 11.5 5.26608Z" fill="#B3B3B3"/>
<path d="M11.5 17.7378C10.8633 17.7378 10.3481 18.253 10.3481 18.8896V21.8484C10.3481 22.485 10.8633 23.0002 11.5 23.0002C12.1366 23.0002 12.6518 22.485 12.6518 21.8484V18.8896C12.6518 18.253 12.1366 17.7378 11.5 17.7378Z" fill="#B3B3B3"/>
<path d="M11.501 14.931C13.3953 14.931 14.9309 13.3954 14.9309 11.5012C14.9309 9.60689 13.3953 8.07129 11.501 8.07129C9.60677 8.07129 8.07117 9.60689 8.07117 11.5012C8.07117 13.3954 9.60677 14.931 11.501 14.931Z" fill="#B3B3B3"/>
</svg>
