<svg width="110" height="26" viewBox="0 0 110 26" fill="none" xmlns="http://www.w3.org/2000/svg">
<rect width="110" height="26" rx="13" fill="url(#paint0_linear_799_12230)"/>
<rect x="0.5" y="0.5" width="109" height="25" rx="12.5" stroke="white" stroke-opacity="0.32"/>
<g clip-path="url(#clip0_799_12230)">
<path d="M14.9105 16.9375C14.9105 16.9375 16.375 16.0625 19 16.0625C21.625 16.0625 23.0895 16.9375 23.0895 16.9375L25.113 10.7365C25.1277 10.6944 25.1295 10.6488 25.1182 10.6056C25.1068 10.5625 25.0828 10.5237 25.0492 10.4943C25.0156 10.4649 24.974 10.4462 24.9297 10.4406C24.8854 10.4351 24.8405 10.4429 24.8007 10.4631L21.8787 11.9199C21.8281 11.9449 21.77 11.9501 21.7158 11.9343C21.6617 11.9185 21.6154 11.8829 21.5862 11.8346L19.1925 7.85939C19.1725 7.82658 19.1444 7.79946 19.1108 7.78065C19.0773 7.76183 19.0395 7.75195 19.0011 7.75195C18.9626 7.75195 18.9249 7.76183 18.8913 7.78065C18.8578 7.79946 18.8297 7.82658 18.8097 7.85939L16.4138 11.8363C16.3847 11.8848 16.3383 11.9205 16.284 11.9363C16.2296 11.9521 16.1713 11.9469 16.1207 11.9216L13.2031 10.4658C13.1633 10.4457 13.1184 10.438 13.0741 10.4436C13.0298 10.4492 12.9883 10.4679 12.9547 10.4972C12.9211 10.5266 12.897 10.5653 12.8856 10.6084C12.8741 10.6515 12.8757 10.6971 12.8903 10.7392L14.9105 16.9375Z" stroke="white" stroke-width="1.2" stroke-linecap="round" stroke-linejoin="round"/>
<path d="M16.8125 14.499C18.2602 14.2503 19.7398 14.2503 21.1875 14.499" stroke="white" stroke-width="1.2" stroke-linecap="round" stroke-linejoin="round"/>
</g>
<path d="M31.68 11.38C31.68 13.17 35.8 11.76 35.8 14.54C35.8 15.88 34.71 16.63 33.22 16.63C31.71 16.63 30.67 15.94 30.39 14.52H31.56C31.75 15.29 32.32 15.71 33.23 15.71C34.16 15.71 34.65 15.3 34.65 14.69C34.65 12.77 30.53 14.2 30.53 11.47C30.53 10.45 31.39 9.57 32.94 9.57C34.28 9.57 35.38 10.21 35.62 11.7H34.43C34.24 10.86 33.71 10.49 32.91 10.49C32.13 10.49 31.68 10.84 31.68 11.38ZM40.1633 14.29V11.17H41.2233V16.5H40.1633V15.78C39.8133 16.35 39.2533 16.63 38.5733 16.63C37.4833 16.63 36.8033 15.99 36.8033 14.73V11.17H37.8733V14.51C37.8733 15.28 38.1933 15.74 38.9033 15.74C39.6833 15.74 40.1633 15.03 40.1633 14.29ZM43.596 18.7H42.526V11.17H43.596V11.81C43.936 11.31 44.436 11.03 45.046 11.03C46.456 11.03 47.306 12.08 47.306 13.82C47.306 15.63 46.436 16.63 45.046 16.63C44.436 16.63 43.936 16.38 43.596 15.89V18.7ZM44.916 11.93C44.056 11.93 43.596 12.6 43.596 13.82C43.596 15.04 44.076 15.73 44.916 15.73C45.756 15.73 46.216 15.05 46.216 13.82C46.216 12.61 45.736 11.93 44.916 11.93ZM53.0763 14.76C52.7863 16 51.8663 16.63 50.6163 16.63C49.0463 16.63 48.0863 15.58 48.0863 13.84C48.0863 12.03 49.0463 11.03 50.5663 11.03C52.1063 11.03 53.0363 12.07 53.0363 13.78V14.04H49.1763C49.2363 15.13 49.7463 15.74 50.6163 15.74C51.2963 15.74 51.7763 15.42 51.9563 14.76H53.0763ZM50.5663 11.92C49.7963 11.92 49.3363 12.41 49.2063 13.31H51.9263C51.7963 12.41 51.3263 11.92 50.5663 11.92ZM54.108 16.5V11.17H55.178V11.96C55.528 11.32 56.078 11.03 56.698 11.03C56.908 11.03 57.108 11.08 57.208 11.17V12.11C57.048 12.06 56.858 12.04 56.638 12.04C55.618 12.04 55.178 12.66 55.178 13.59V16.5H54.108ZM58.7861 12.57C58.7861 13.93 62.1961 12.79 62.1961 14.96C62.1961 15.97 61.2861 16.63 59.9961 16.63C58.7061 16.63 57.7961 16.03 57.5961 14.76H58.6661C58.7761 15.43 59.2761 15.8 60.0261 15.8C60.7461 15.8 61.1261 15.48 61.1261 15.03C61.1261 13.7 57.7661 14.82 57.7661 12.63C57.7661 11.8 58.4161 11.03 59.7661 11.03C60.9561 11.03 61.8361 11.58 62.0061 12.91H60.9361C60.8161 12.16 60.3961 11.88 59.7161 11.88C59.1261 11.88 58.7861 12.17 58.7861 12.57ZM63.3105 14.91V12H62.5905V11.17H63.3105V9.94H64.3805V11.17H65.5305V12H64.3805V14.85C64.3805 15.46 64.5505 15.75 65.3005 15.75H65.5105V16.53C65.3905 16.59 65.1405 16.63 64.8405 16.63C63.8005 16.63 63.3105 16.06 63.3105 14.91ZM67.3446 12.91H66.2746C66.4446 11.73 67.2546 11.03 68.5846 11.03C70.0346 11.03 70.7546 11.88 70.7546 13.12V15.2C70.7546 15.84 70.8146 16.21 70.9346 16.5H69.8146C69.7346 16.3 69.7046 16.02 69.6946 15.72C69.2446 16.35 68.5546 16.63 67.9146 16.63C66.8346 16.63 66.0946 16.12 66.0946 15.1C66.0946 14.37 66.4946 13.83 67.2946 13.56C68.0046 13.32 68.7246 13.26 69.6846 13.25V13.13C69.6846 12.35 69.3246 11.93 68.5046 11.93C67.8146 11.93 67.4446 12.31 67.3446 12.91ZM67.1746 15.06C67.1746 15.51 67.5446 15.79 68.1146 15.79C69.0046 15.79 69.6846 15.08 69.6846 14.22V13.98C67.6346 14 67.1746 14.45 67.1746 15.06ZM72.0963 16.5V11.17H73.1663V11.96C73.5163 11.32 74.0663 11.03 74.6863 11.03C74.8963 11.03 75.0963 11.08 75.1963 11.17V12.11C75.0363 12.06 74.8463 12.04 74.6263 12.04C73.6063 12.04 73.1663 12.66 73.1663 13.59V16.5H72.0963ZM78.8773 11.38C78.8773 13.17 82.9973 11.76 82.9973 14.54C82.9973 15.88 81.9073 16.63 80.4173 16.63C78.9073 16.63 77.8673 15.94 77.5873 14.52H78.7573C78.9473 15.29 79.5173 15.71 80.4273 15.71C81.3573 15.71 81.8473 15.3 81.8473 14.69C81.8473 12.77 77.7273 14.2 77.7273 11.47C77.7273 10.45 78.5873 9.57 80.1373 9.57C81.4773 9.57 82.5773 10.21 82.8173 11.7H81.6273C81.4373 10.86 80.9073 10.49 80.1073 10.49C79.3273 10.49 78.8773 10.84 78.8773 11.38ZM84.1406 14.91V12H83.4206V11.17H84.1406V9.94H85.2106V11.17H86.3606V12H85.2106V14.85C85.2106 15.46 85.3806 15.75 86.1306 15.75H86.3406V16.53C86.2206 16.59 85.9706 16.63 85.6706 16.63C84.6306 16.63 84.1406 16.06 84.1406 14.91ZM90.5246 14.29V11.17H91.5846V16.5H90.5246V15.78C90.1746 16.35 89.6146 16.63 88.9346 16.63C87.8446 16.63 87.1646 15.99 87.1646 14.73V11.17H88.2346V14.51C88.2346 15.28 88.5546 15.74 89.2646 15.74C90.0446 15.74 90.5246 15.03 90.5246 14.29ZM92.2873 12V11.17H93.0073V10.89C93.0073 9.73 93.4973 9.17 94.4973 9.17C94.7673 9.17 94.9773 9.22 95.0873 9.27V9.99H94.9873C94.2473 9.99 94.0673 10.29 94.0673 10.9V11.17H95.0873V12H94.0673V16.5H93.0073V12H92.2873ZM95.1486 12V11.17H95.8686V10.89C95.8686 9.73 96.3586 9.17 97.3586 9.17C97.6286 9.17 97.8386 9.22 97.9486 9.27V9.99H97.8486C97.1086 9.99 96.9286 10.29 96.9286 10.9V11.17H97.9486V12H96.9286V16.5H95.8686V12H95.1486Z" fill="white"/>
<defs>
<linearGradient id="paint0_linear_799_12230" x1="-13.0952" y1="59.8" x2="177.154" y2="-18.3029" gradientUnits="userSpaceOnUse">
<stop stop-color="#3579DD"/>
<stop offset="0.749606" stop-color="#3DFF51"/>
</linearGradient>
<clipPath id="clip0_799_12230">
<rect width="14" height="14" fill="white" transform="translate(12 6)"/>
</clipPath>
</defs>
</svg>
