<svg width="22" height="22" viewBox="0 0 22 22" fill="none" xmlns="http://www.w3.org/2000/svg">
<path fill-rule="evenodd" clip-rule="evenodd" d="M20.048 9.39749L18.1885 14.976C16.8774 18.9091 16.2219 20.8757 15.2606 21.4346C14.3461 21.9662 13.2167 21.9662 12.3022 21.4346C11.3409 20.8757 10.6854 18.9091 9.37431 14.9759C9.1638 14.3444 9.05854 14.0286 8.88185 13.7647C8.71061 13.5089 8.49088 13.2892 8.2351 13.118C7.97116 12.9413 7.65539 12.836 7.02386 12.6255C3.09067 11.3144 1.12408 10.6589 0.565233 9.69761C0.0335938 8.78312 0.0335941 7.65368 0.565234 6.73919C1.12408 5.7779 3.09068 5.12237 7.02386 3.81131L12.6023 1.95182C17.4756 0.327409 19.9122 -0.484798 21.1984 0.801409C22.4846 2.08762 21.6724 4.52424 20.048 9.39749ZM12.1327 9.81065C11.8171 9.4916 11.82 8.97716 12.139 8.66162L16.7004 4.1505C17.0195 3.83496 17.5339 3.83781 17.8495 4.15686C18.165 4.47592 18.1622 4.99036 17.8431 5.30589L13.2817 9.81702C12.9626 10.1326 12.4482 10.1297 12.1327 9.81065Z" fill="white"/>
</svg>
