<svg width="14" height="15" viewBox="0 0 14 15" fill="none" xmlns="http://www.w3.org/2000/svg">
<g clip-path="url(#clip0_799_12241)">
<path d="M12.8242 6.75505L10.3578 8.90755L11.0966 12.1122C11.1357 12.2798 11.1246 12.4551 11.0646 12.6163C11.0046 12.7776 10.8983 12.9175 10.7592 13.0187C10.6201 13.1199 10.4542 13.1778 10.2824 13.1853C10.1105 13.1927 9.94024 13.1493 9.79289 13.0605L6.99781 11.3652L4.20875 13.0605C4.06141 13.1493 3.89115 13.1927 3.71928 13.1853C3.54741 13.1778 3.38154 13.1199 3.24242 13.0187C3.10329 12.9175 2.99709 12.7776 2.93707 12.6163C2.87706 12.4551 2.8659 12.2798 2.905 12.1122L3.64273 8.91083L1.17578 6.75505C1.0453 6.64251 0.950951 6.49396 0.904562 6.32802C0.858172 6.16208 0.861809 5.98613 0.915016 5.82225C0.968223 5.65836 1.06863 5.51384 1.20365 5.40679C1.33867 5.29974 1.50229 5.23494 1.67398 5.22052L4.9257 4.93887L6.195 1.91138C6.26128 1.75252 6.37309 1.61682 6.51634 1.52138C6.65958 1.42593 6.82787 1.375 7 1.375C7.17213 1.375 7.34042 1.42593 7.48366 1.52138C7.62691 1.61682 7.73872 1.75252 7.805 1.91138L9.07812 4.93887L12.3288 5.22052C12.5005 5.23494 12.6641 5.29974 12.7991 5.40679C12.9341 5.51384 13.0345 5.65836 13.0877 5.82225C13.1409 5.98613 13.1446 6.16208 13.0982 6.32802C13.0518 6.49396 12.9574 6.64251 12.827 6.75505H12.8242Z" fill="#3579DD"/>
</g>
<defs>
<clipPath id="clip0_799_12241">
<rect width="14" height="14" fill="white" transform="translate(0 0.5)"/>
</clipPath>
</defs>
</svg>
