<svg width="20" height="20" viewBox="0 0 20 20" fill="none" xmlns="http://www.w3.org/2000/svg">
<circle cx="10" cy="10" r="10" fill="#0D1828"/>
<path d="M10.3115 7.72702C9.7757 7.72702 9.46417 7.94986 9.46417 8.29526C9.46417 9.35376 13.5763 8.52925 13.5763 11.3705C13.5763 12.8858 12.0935 14 9.68847 14C7.25857 14 6.03738 12.9192 6 11.2702H8.67913C8.71651 11.9053 9.12773 12.273 9.80062 12.273C10.4735 12.273 10.8723 12.039 10.8723 11.6045C10.8723 10.5237 6.77259 11.2256 6.77259 8.58496C6.77259 7.20334 7.95639 6 10.5483 6C12.7165 6 14 7.01393 14 8.61838H11.3333C11.2835 8.039 11.0093 7.72702 10.3115 7.72702Z" fill="#3579DD"/>
</svg>
