<svg width="27" height="27" viewBox="0 0 27 27" fill="none" xmlns="http://www.w3.org/2000/svg">
<path d="M6.625 5.25C6.625 4.49061 6.00939 3.875 5.25 3.875C4.49061 3.875 3.875 4.49061 3.875 5.25C3.875 6.00939 4.49061 6.625 5.25 6.625C6.00939 6.625 6.625 6.00939 6.625 5.25Z" fill="white"/>
<path fill-rule="evenodd" clip-rule="evenodd" d="M0.09375 3.875C0.09375 1.78667 1.78667 0.09375 3.875 0.09375H6.625C8.71333 0.09375 10.4062 1.78667 10.4062 3.875V6.625C10.4062 8.71333 8.71333 10.4062 6.625 10.4062H3.875C1.78667 10.4062 0.09375 8.71333 0.09375 6.625V3.875ZM3.875 2.15625C2.92576 2.15625 2.15625 2.92576 2.15625 3.875V6.625C2.15625 7.57424 2.92576 8.34375 3.875 8.34375H6.625C7.57424 8.34375 8.34375 7.57424 8.34375 6.625V3.875C8.34375 2.92576 7.57424 2.15625 6.625 2.15625H3.875Z" fill="white"/>
<path d="M5.25 20.375C6.00939 20.375 6.625 20.9906 6.625 21.75C6.625 22.5094 6.00939 23.125 5.25 23.125C4.49061 23.125 3.875 22.5094 3.875 21.75C3.875 20.9906 4.49061 20.375 5.25 20.375Z" fill="white"/>
<path fill-rule="evenodd" clip-rule="evenodd" d="M0.09375 20.375C0.09375 18.2867 1.78667 16.5938 3.875 16.5938H6.625C8.71333 16.5938 10.4062 18.2867 10.4062 20.375V23.125C10.4062 25.2133 8.71333 26.9062 6.625 26.9062H3.875C1.78667 26.9062 0.09375 25.2133 0.09375 23.125V20.375ZM3.875 18.6562C2.92576 18.6562 2.15625 19.4258 2.15625 20.375V23.125C2.15625 24.0742 2.92576 24.8438 3.875 24.8438H6.625C7.57424 24.8438 8.34375 24.0742 8.34375 23.125V20.375C8.34375 19.4258 7.57424 18.6562 6.625 18.6562H3.875Z" fill="white"/>
<path d="M21.75 3.875C22.5094 3.875 23.125 4.49061 23.125 5.25C23.125 6.00939 22.5094 6.625 21.75 6.625C20.9906 6.625 20.375 6.00939 20.375 5.25C20.375 4.49061 20.9906 3.875 21.75 3.875Z" fill="white"/>
<path fill-rule="evenodd" clip-rule="evenodd" d="M20.375 0.09375C18.2867 0.09375 16.5938 1.78667 16.5938 3.875V6.625C16.5938 8.71333 18.2867 10.4062 20.375 10.4062H23.125C25.2133 10.4062 26.9062 8.71333 26.9062 6.625V3.875C26.9062 1.78667 25.2133 0.09375 23.125 0.09375H20.375ZM18.6562 3.875C18.6562 2.92576 19.4258 2.15625 20.375 2.15625H23.125C24.0742 2.15625 24.8438 2.92576 24.8438 3.875V6.625C24.8438 7.57424 24.0742 8.34375 23.125 8.34375H20.375C19.4258 8.34375 18.6562 7.57424 18.6562 6.625V3.875Z" fill="white"/>
<path d="M25.875 16.5938C26.4445 16.5938 26.9062 17.0555 26.9062 17.625V23.125C26.9062 25.2133 25.2133 26.9062 23.125 26.9062H17.625C17.0555 26.9062 16.5938 26.4445 16.5938 25.875C16.5938 25.3055 17.0555 24.8438 17.625 24.8438H23.125C24.0742 24.8438 24.8438 24.0742 24.8438 23.125V17.625C24.8438 17.0555 25.3055 16.5938 25.875 16.5938Z" fill="white"/>
<path d="M21.75 20.375C22.5094 20.375 23.125 20.9906 23.125 21.75C23.125 22.5094 22.5094 23.125 21.75 23.125C20.9906 23.125 20.375 22.5094 20.375 21.75C20.375 20.9906 20.9906 20.375 21.75 20.375Z" fill="white"/>
<path d="M25.875 13.5C25.875 12.7406 25.2594 12.125 24.5 12.125C23.7406 12.125 23.125 12.7406 23.125 13.5C23.125 14.2594 23.7406 14.875 24.5 14.875C25.2594 14.875 25.875 14.2594 25.875 13.5Z" fill="white"/>
<path d="M12.4688 17.625C12.4688 17.0555 12.9305 16.5938 13.5 16.5938H21.75C22.3195 16.5938 22.7812 17.0555 22.7812 17.625C22.7812 18.1945 22.3195 18.6562 21.75 18.6562H13.5C12.9305 18.6562 12.4688 18.1945 12.4688 17.625Z" fill="white"/>
<path d="M6.625 12.4688C6.05546 12.4688 5.59375 12.9305 5.59375 13.5C5.59375 14.0695 6.05546 14.5312 6.625 14.5312H10.75C11.3195 14.5312 11.7812 14.0695 11.7812 13.5C11.7812 12.9305 11.3195 12.4688 10.75 12.4688H6.625Z" fill="white"/>
<path d="M13.5 0.09375C14.0695 0.09375 14.5312 0.555456 14.5312 1.125V5.25C14.5312 5.81954 14.0695 6.28125 13.5 6.28125C12.9305 6.28125 12.4688 5.81954 12.4688 5.25V1.125C12.4688 0.555456 12.9305 0.09375 13.5 0.09375Z" fill="white"/>
<path d="M1.125 12.4688C0.555456 12.4688 0.09375 12.9305 0.09375 13.5C0.09375 14.0695 0.555456 14.5312 1.125 14.5312H2.5C3.06954 14.5312 3.53125 14.0695 3.53125 13.5C3.53125 12.9305 3.06954 12.4688 2.5 12.4688H1.125Z" fill="white"/>
<path d="M12.4688 24.5C12.4688 22.4117 14.1617 20.7188 16.25 20.7188H17.625C18.1945 20.7188 18.6562 21.1805 18.6562 21.75C18.6562 22.3195 18.1945 22.7812 17.625 22.7812H16.25C15.3008 22.7812 14.5312 23.5508 14.5312 24.5V25.875C14.5312 26.4445 14.0695 26.9062 13.5 26.9062C12.9305 26.9062 12.4688 26.4445 12.4688 25.875V24.5Z" fill="white"/>
<path d="M16.25 14.5312C14.1617 14.5312 12.4688 12.8383 12.4688 10.75V9.375C12.4688 8.80546 12.9305 8.34375 13.5 8.34375C14.0695 8.34375 14.5312 8.80546 14.5312 9.375V10.75C14.5312 11.6992 15.3008 12.4688 16.25 12.4688H20.375C20.9445 12.4688 21.4062 12.9305 21.4062 13.5C21.4062 14.0695 20.9445 14.5312 20.375 14.5312H16.25Z" fill="white"/>
</svg>
