<svg width="82" height="82" viewBox="0 0 82 82" fill="none" xmlns="http://www.w3.org/2000/svg">
<g filter="url(#filter0_d_1_3493)">
<circle cx="41" cy="33" r="21" fill="#202938"/>
<circle cx="41" cy="33" r="20.5" stroke="#2D3748"/>
</g>
<g clip-path="url(#clip0_1_3493)">
<path d="M47.875 28.625H35.375C35.2092 28.625 35.0503 28.5592 34.9331 28.4419C34.8158 28.3247 34.75 28.1658 34.75 28C34.75 27.8342 34.8158 27.6753 34.9331 27.5581C35.0503 27.4408 35.2092 27.375 35.375 27.375H46C46.1658 27.375 46.3247 27.3092 46.4419 27.1919C46.5592 27.0747 46.625 26.9158 46.625 26.75C46.625 26.5842 46.5592 26.4253 46.4419 26.3081C46.3247 26.1908 46.1658 26.125 46 26.125H35.375C34.8777 26.125 34.4008 26.3225 34.0492 26.6742C33.6975 27.0258 33.5 27.5027 33.5 28V38C33.5 38.4973 33.6975 38.9742 34.0492 39.3258C34.4008 39.6775 34.8777 39.875 35.375 39.875H47.875C48.2065 39.875 48.5245 39.7433 48.7589 39.5089C48.9933 39.2745 49.125 38.9565 49.125 38.625V29.875C49.125 29.5435 48.9933 29.2255 48.7589 28.9911C48.5245 28.7567 48.2065 28.625 47.875 28.625ZM45.0625 34.875C44.8771 34.875 44.6958 34.82 44.5417 34.717C44.3875 34.614 44.2673 34.4676 44.1964 34.2963C44.1254 34.125 44.1068 33.9365 44.143 33.7546C44.1792 33.5727 44.2685 33.4057 44.3996 33.2746C44.5307 33.1435 44.6977 33.0542 44.8796 33.018C45.0615 32.9818 45.25 33.0004 45.4213 33.0714C45.5926 33.1423 45.739 33.2625 45.842 33.4167C45.945 33.5708 46 33.7521 46 33.9375C46 34.1861 45.9012 34.4246 45.7254 34.6004C45.5496 34.7762 45.3111 34.875 45.0625 34.875Z" fill="#3579DD"/>
</g>
<defs>
<filter id="filter0_d_1_3493" x="0" y="0" width="82" height="82" filterUnits="userSpaceOnUse" color-interpolation-filters="sRGB">
<feFlood flood-opacity="0" result="BackgroundImageFix"/>
<feColorMatrix in="SourceAlpha" type="matrix" values="0 0 0 0 0 0 0 0 0 0 0 0 0 0 0 0 0 0 127 0" result="hardAlpha"/>
<feOffset dy="8"/>
<feGaussianBlur stdDeviation="10"/>
<feComposite in2="hardAlpha" operator="out"/>
<feColorMatrix type="matrix" values="0 0 0 0 0.337255 0 0 0 0 0.345098 0 0 0 0 0.360784 0 0 0 0.12 0"/>
<feBlend mode="normal" in2="BackgroundImageFix" result="effect1_dropShadow_1_3493"/>
<feBlend mode="normal" in="SourceGraphic" in2="effect1_dropShadow_1_3493" result="shape"/>
</filter>
<clipPath id="clip0_1_3493">
<rect width="20" height="20" fill="white" transform="translate(31 23)"/>
</clipPath>
</defs>
</svg>
